<?xml version="1.0" encoding="utf-8"?>
<!-- Generator: Adobe Illustrator 26.0.2, SVG Export Plug-In . SVG Version: 6.00 Build 0)  -->
<svg version="1.1" id="Calque_1" xmlns="http://www.w3.org/2000/svg" xmlns:xlink="http://www.w3.org/1999/xlink" x="0px" y="0px"
	 viewBox="0 0 40 40" style="enable-background:new 0 0 40 40;" xml:space="preserve">
<style type="text/css">
	.st0{fill:none;}
	.st1{fill:#454555;}
	.st2{fill:#57576A;}
	.st3{fill:#67677D;}
	.st4{fill:#DCDCE9;}
	.st5{fill:#F4EBE6;}
</style>
<g>
	<rect x="34.5" y="34" class="st0" width="2.1" height="1.3"/>
	<rect x="3.5" y="34.7" class="st0" width="2.1" height="0.6"/>
	<polygon class="st1" points="4,8.7 4.6,8.7 4.6,7.6 5,7.6 4.3,5.8 3.6,7.6 4,7.6 	"/>
	<polygon class="st2" points="5.8,14.5 5.9,14.6 5.9,14.8 5.9,14.9 6,15 6.1,15.1 6.2,15.2 6.3,15.3 6.5,15.3 6.6,15.4 6.7,15.4 
		6.9,15.4 27.5,15.4 27.7,15.3 27.8,15.3 27.9,15.2 28,15.2 28.1,15.1 28.1,15 28.2,14.9 28.2,14.8 28.3,14.7 28.3,14.6 28.3,14.5 
		28.3,14.3 28.3,3.4 28.1,3.4 28.1,14.1 28.1,14.2 28.1,14.3 28.1,14.4 28,14.5 28,14.7 27.9,14.8 27.9,14.8 27.8,14.9 27.7,15 
		27.6,15 27.5,15.1 27.4,15.1 10.3,15.1 10.2,15.1 10.1,15.1 9.9,15.1 9.8,15 9.7,14.9 9.7,14.9 9.6,14.7 9.5,14.6 9.5,14.5 
		9.4,14.4 9.4,14.2 9.4,14.1 9.4,3.2 5.9,3.2 5.9,14.3 	"/>
	<path class="st3" d="M34.1,2.9L34.1,2.9L29.9,3l-0.2,0.4h-1.4v11l0,0.1l0,0.1l0,0.1l0,0.1l-0.1,0.1L28.1,15l-0.1,0.1L28,15.2
		l-0.1,0.1l-0.1,0.1l-0.1,0l-0.1,0H6.9l-0.1,0l-0.1,0l-0.1,0l-0.1-0.1l-0.1-0.1l-0.1-0.1L6,15l-0.1-0.1l-0.1-0.1l0-0.1l0-0.1l0-0.1
		V3.2V3h-3v34.1h3V37V19l0-0.2l0-0.2l0-0.2L6,18.2L6.1,18l0.1-0.2l0.2-0.1l0.2-0.1l0.2-0.1l0.2,0l0.2,0l0.2,0h25.3l0.2,0l0.2,0
		l0.2,0.1l0.2,0.1l0.2,0.1l0.1,0.1l0.1,0.1l0.1,0.2l0.1,0.2l0.1,0.2l0,0.2l0,0.2v18v0.1h3V4.3l-1.4-1.4H34.1z M4.3,5.8L5,7.6H4.6
		v1.1H4V7.6H3.6L4.3,5.8z M5.5,34.7v0.6H3.5v-0.6V34h2.1V34.7z M36.6,35.3h-2.1V34h2.1V35.3z"/>
	<path class="st4" d="M9.4,14.2l0,0.1l0,0.1l0,0.1l0.1,0.1l0.1,0.1l0.1,0.1L9.8,15l0.1,0.1l0.1,0l0.1,0l0.1,0h17.2l0.1,0l0.1,0
		l0.1-0.1l0.1-0.1l0.1-0.1l0.1-0.1l0.1-0.1l0-0.1l0-0.1l0-0.1l0-0.1l0-0.1V3.4V3.1H9.4v0.1v10.9L9.4,14.2z M20.3,4.4h5v10h-5V4.4z"
		/>
	<polygon class="st5" points="34.1,18.8 34.1,18.6 34,18.4 33.9,18.2 33.8,18.1 33.7,17.9 33.6,17.8 33.4,17.7 33.2,17.6 33,17.5 
		32.9,17.5 32.7,17.5 7.3,17.5 7.1,17.5 6.9,17.5 6.7,17.5 6.6,17.6 6.4,17.7 6.2,17.9 6.1,18 6,18.2 5.9,18.4 5.9,18.6 5.8,18.8 
		5.9,19 5.9,37 34.1,37 34.1,19 	"/>
	<rect x="3.5" y="34" class="st1" width="2.1" height="0.7"/>
	<rect x="20.3" y="4.4" class="st2" width="5" height="10"/>
</g>
</svg>
